<svg xmlns="http://www.w3.org/2000/svg" viewBox="0 0 64.6 73.28750000000001" x="0px" y="0px"><title>plugin</title><g data-name="Layer 2"><g><g data-name="Layer 27"><path d="M64.48,11.35a3.48,3.48,0,0,0-3.35-2.5,3.7,3.7,0,0,0-1.55.35.73.73,0,0,1-.68-.08.67.67,0,0,1-.28-.55V.35A.39.39,0,0,0,58.27,0H34.35A.38.38,0,0,0,34,.35V8.57a.47.47,0,0,0,.22.4.26.26,0,0,0,.29,0,3.73,3.73,0,0,1,1.71-.39,3.76,3.76,0,1,1,0,7.52,4,4,0,0,1-1.69-.39.47.47,0,0,0-.38.06.37.37,0,0,0-.15.31v8.22a.38.38,0,0,0,.35.35h8.22a.37.37,0,0,0,.3-.16.44.44,0,0,0,.06-.39,3.57,3.57,0,0,1-.39-1.67A3.76,3.76,0,0,1,44,19.45a3.82,3.82,0,0,1,2.34-.81,3.52,3.52,0,0,1,1,.13,3.78,3.78,0,0,1,2.73,3.63,4,4,0,0,1-.39,1.69.41.41,0,0,0,.06.37.37.37,0,0,0,.3.16h8.23a.39.39,0,0,0,.35-.35V16.05a.74.74,0,0,1,.38-.66.57.57,0,0,1,.6,0,3.28,3.28,0,0,0,1.53.35,3.5,3.5,0,0,0,3.35-4.42Z"/><path d="M44.58,34.64H38l0-.18a4.87,4.87,0,0,0,.08-.84,4.39,4.39,0,0,0-4.33-4.34,4.29,4.29,0,0,0-4.34,4.34,3.44,3.44,0,0,0,.11.83l0,.19H23.87V29l.18,0a4.23,4.23,0,0,0,4-1.29,4,4,0,0,0,1-3.15,4.3,4.3,0,0,0-4.34-4.27,3.42,3.42,0,0,0-.83.1l-.19.05V13.81a1.09,1.09,0,0,0-1.09-1.1H15.9l0-.18a4.07,4.07,0,0,0,.09-.84,4.34,4.34,0,1,0-8.67,0,3.42,3.42,0,0,0,.1.83l0,.19H1.1A1.1,1.1,0,0,0,0,13.81V57.54a1.09,1.09,0,0,0,1.1,1.09H44.58a1.09,1.09,0,0,0,1.09-1.09V49.07a1.09,1.09,0,0,0-.67-1,1.11,1.11,0,0,0-1.2.24,1.86,1.86,0,0,1-1.34.55,2.15,2.15,0,0,1-2.14-2.27,2.12,2.12,0,0,1,2.14-2.14,2.5,2.5,0,0,1,1.43.63,1.1,1.1,0,0,0,1.78-.85V35.73A1.09,1.09,0,0,0,44.58,34.64ZM2.19,14.9H9.32a1.09,1.09,0,0,0,.85-1.78,2.5,2.5,0,0,1-.63-1.43,2.15,2.15,0,1,1,4.29,0A1.93,1.93,0,0,1,13.28,13a1.09,1.09,0,0,0,.77,1.87h7.38v7.38a1.11,1.11,0,0,0,.62,1,1.09,1.09,0,0,0,1.16-.14,2.5,2.5,0,0,1,1.43-.63,2.12,2.12,0,0,1,2.15,2.14.61.61,0,0,0,0,.14,1.86,1.86,0,0,1-.42,1.5,2,2,0,0,1-1.49.63,1.89,1.89,0,0,1-1.34-.55,1.1,1.1,0,0,0-1.19-.24,1.09,1.09,0,0,0-.68,1v7.5H14.3a1.09,1.09,0,0,0-.85,1.78,2.5,2.5,0,0,1,.63,1.43,2.15,2.15,0,1,1-4.29,0,1.93,1.93,0,0,1,.55-1.34,1.09,1.09,0,0,0-.77-1.87H2.19ZM21.8,56.44H2.19V36.83H7.73l0,.18a4,4,0,0,0-.09.84,4.34,4.34,0,1,0,8.67,0,3.5,3.5,0,0,0-.1-.84l-.05-.18H21.8v5.66l-.18,0a4,4,0,0,0-.84-.09,4.34,4.34,0,0,0,0,8.67,3.44,3.44,0,0,0,.84-.1l.18,0ZM43.48,42.38l-.18,0a3.44,3.44,0,0,0-.84-.1,4.28,4.28,0,0,0-4.33,4.33A4.35,4.35,0,0,0,42.46,51,4.78,4.78,0,0,0,43.3,51l.18,0v5.53H24V49.07a1.1,1.1,0,0,0-1.78-.86,2.55,2.55,0,0,1-1.44.63,2.15,2.15,0,0,1,0-4.29,1.91,1.91,0,0,1,1.35.56,1.07,1.07,0,0,0,1.19.23,1.09,1.09,0,0,0,.68-1v-7.5h7.37a1.1,1.1,0,0,0,.86-1.78,2.52,2.52,0,0,1-.63-1.43,2.12,2.12,0,0,1,2.14-2.15,2.2,2.2,0,0,1,2.14,2.15A1.91,1.91,0,0,1,35.33,35a1.09,1.09,0,0,0,.78,1.87h7.37Z"/></g></g></g><text x="0" y="73.63" fill="#ffffff" font-size="5px" font-weight="bold" font-family="'Helvetica Neue', Helvetica, Arial-Unicode, Arial, Sans-serif">Created by Galaktionoff</text><text x="0" y="78.63" fill="#ffffff" font-size="5px" font-weight="bold" font-family="'Helvetica Neue', Helvetica, Arial-Unicode, Arial, Sans-serif">from the Noun Project</text></svg>